<svg width="112" height="112" viewBox="0 0 112 112" fill="none" xmlns="http://www.w3.org/2000/svg">
<path d="M0 43.008C0 27.9538 0 20.4267 2.92974 14.6767C5.50682 9.61894 9.61894 5.50682 14.6767 2.92974C20.4267 0 27.9538 0 43.008 0H68.992C84.0462 0 91.5733 0 97.3233 2.92974C102.381 5.50682 106.493 9.61894 109.07 14.6767C112 20.4267 112 27.9538 112 43.008V68.992C112 84.0462 112 91.5733 109.07 97.3233C106.493 102.381 102.381 106.493 97.3233 109.07C91.5733 112 84.0462 112 68.992 112H43.008C27.9538 112 20.4267 112 14.6767 109.07C9.61894 106.493 5.50682 102.381 2.92974 97.3233C0 91.5733 0 84.0462 0 68.992V43.008Z" fill="#F8B216"/>
<path fill-rule="evenodd" clip-rule="evenodd" d="M24.64 35.4557C24.64 31.4644 29.4656 29.4656 32.2878 32.2878L52.8322 52.8322C54.5817 54.5817 57.4183 54.5817 59.1678 52.8322L79.7122 32.2878C82.5344 29.4656 87.36 31.4644 87.36 35.4557V82.88C87.36 85.3542 85.3542 87.36 82.88 87.36H29.12C26.6458 87.36 24.64 85.3542 24.64 82.88V35.4557Z" fill="black"/>
</svg>
